<svg xmlns="http://www.w3.org/2000/svg" width="48" height="48" viewBox="0 0 24 24" fill="#FFA500">
  <path d="M12.01 2C6.48 2 2 6.48 2 12.02c0 1.94.56 3.74 1.53 5.27L2 22l4.84-1.49a9.96 9.96 0 0 0 5.17 1.44c5.52 0 10-4.48 10-10.01C22 6.48 17.52 2 12.01 2zm5.23 14.58c-.27.76-1.59 1.49-2.24 1.56-.6.06-1.34.08-2.15-.18a9.03 9.03 0 0 1-3.88-2.57 8.98 8.98 0 0 1-1.98-4.04c-.05-.31-.02-.91.21-1.3.24-.4.62-.66 1.03-.7.26-.03.52-.01.74.12.21.12.45.29.71.5.24.19.41.42.52.7.12.3.06.58-.05.8-.11.23-.34.51-.45.65-.15.18-.3.34-.1.61.2.28.9 1.49 2.17 2.12 1.27.62 1.45.47 1.7.4.26-.07.55-.36.7-.56.18-.25.37-.3.62-.2.25.09 1.56.74 1.83.87.27.13.45.2.52.31.07.11.07.79-.2 1.54z"/>
</svg>
